<?xml version="1.0" standalone="no"?>
<!DOCTYPE svg PUBLIC "-//W3C//DTD SVG 20010904//EN"
 "http://www.w3.org/TR/2001/REC-SVG-20010904/DTD/svg10.dtd">
<svg version="1.0" xmlns="http://www.w3.org/2000/svg"
 width="1280.000000pt" height="1030.000000pt" viewBox="0 0 1280.000000 1030.000000"
 preserveAspectRatio="xMidYMid meet">
<metadata>
Created by potrace 1.15, written by Peter Selinger 2001-2017
</metadata>
<g transform="translate(0.000000,1030.000000) scale(0.100000,-0.100000)"
fill="#000000" stroke="none">
<path d="M9150 10069 c-386 -47 -894 -131 -1515 -250 -578 -111 -693 -136
-1110 -244 -280 -73 -623 -176 -933 -281 -319 -108 -788 -341 -909 -451 -63
-58 -315 -362 -382 -462 -151 -224 -331 -567 -611 -1166 -106 -225 -196 -414
-200 -419 -5 -4 -102 13 -217 38 -419 93 -674 126 -960 126 -218 0 -370 -16
-548 -59 -330 -80 -618 -231 -857 -449 -105 -95 -91 -91 -309 -102 -202 -10
-281 -23 -345 -57 -35 -18 -83 -68 -73 -76 32 -25 442 -245 696 -373 706 -356
922 -431 1848 -644 l460 -105 7 -50 c18 -128 39 -375 53 -635 19 -347 28 -446
55 -575 25 -124 52 -207 100 -310 20 -44 50 -109 67 -145 41 -88 175 -286 265
-390 41 -47 99 -128 130 -180 114 -193 227 -337 423 -539 330 -338 943 -818
1390 -1088 181 -109 867 -469 1052 -551 372 -167 727 -301 954 -361 264 -71
574 -100 712 -67 66 15 160 57 171 75 4 5 -516 418 -1153 918 -638 499 -1160
911 -1161 915 0 12 114 -3 238 -33 68 -16 135 -29 149 -29 14 0 42 -9 62 -20
60 -34 1164 -406 1426 -481 150 -43 203 -38 170 17 -9 16 -338 340 -729 719
l-712 690 50 8 c82 14 338 1 526 -26 286 -41 640 -79 675 -73 46 9 58 26 45
63 -6 16 -278 349 -604 739 -349 417 -589 712 -582 715 17 10 221 57 301 69
126 20 413 16 559 -9 515 -86 1060 -304 2416 -966 666 -325 997 -475 1218
-552 260 -91 305 -103 402 -110 l85 -5 -35 34 c-19 19 -183 177 -365 350 -181
174 -393 380 -470 459 -151 155 -374 414 -447 519 -59 84 -122 210 -154 307
-25 77 -25 79 -9 153 33 151 114 279 263 415 141 130 297 261 357 302 33 22
332 203 665 404 533 320 860 528 860 546 0 11 -224 -6 -345 -26 -169 -28 -823
-186 -1115 -269 -451 -129 -1461 -378 -1625 -401 -335 -47 -705 -47 -835 1
-114 41 -175 60 -540 162 -318 90 -385 112 -445 147 -182 108 -229 133 -406
215 -104 48 -189 91 -189 94 0 4 53 38 118 75 332 193 831 541 1132 789 310
256 417 368 455 476 13 38 21 100 11 100 -1 0 -441 -34 -976 -75 -535 -41
-982 -75 -994 -75 -17 0 -14 4 15 24 56 38 410 240 694 396 500 275 927 525
1104 648 119 82 229 186 252 236 16 36 16 43 3 69 -14 25 -20 28 -47 23 -18
-3 -558 -84 -1202 -181 -643 -96 -1181 -177 -1195 -181 -16 -3 -21 -2 -15 4
13 12 1120 518 1610 735 1123 499 1326 600 1450 720 l50 48 -24 20 c-29 24
-23 24 -401 -22z"/>
</g>
</svg>
